<?xml version="1.0" encoding="UTF-8"?><svg id="Calque_1" xmlns="http://www.w3.org/2000/svg" viewBox="0 0 87.39 80.26"><defs><style>.cls-1{fill:none;stroke:#3b3b3c;stroke-width:2.23px;}.cls-2{fill:#fff;}.cls-3{fill:#3b3b3c;}</style></defs><g id="Groupe_237"><g id="Linkedin_Caroline"><g id="Ellipse_6"><ellipse class="cls-2" cx="43.7" cy="40.48" rx="22.34" ry="22.9"/><ellipse class="cls-1" cx="43.7" cy="40.48" rx="21.23" ry="21.78"/></g><g id="linkedin10"><rect id="Rectangle_32" class="cls-3" x="36.1" y="36.3" width="3.6" height="10.82"/><path id="Tracé_21" class="cls-3" d="m51.52,37.29c-.77-.83-1.87-1.28-3-1.24-.42,0-.84.05-1.25.17-.34.1-.67.26-.95.47-.42.31-.77.7-1.05,1.14v-1.54h-3.59v.52c.02.35.02,1.43.02,3.23,0,1.8,0,4.16-.02,7.06h3.59v-6.03c-.01-.3.03-.6.12-.88.15-.36.39-.69.69-.93.33-.26.74-.39,1.15-.38.54-.04,1.07.21,1.38.65.32.54.48,1.17.45,1.8v5.78h3.59v-6.2c.09-1.31-.31-2.6-1.14-3.63Z"/><path id="Tracé_22" class="cls-3" d="m37.92,31.1c-.54-.02-1.07.17-1.47.53-.37.35-.57.83-.56,1.34-.01.5.18.98.55,1.33.39.37.91.56,1.44.54h.02c.54.02,1.08-.17,1.48-.54.37-.34.57-.83.55-1.33,0-.51-.19-.99-.56-1.34-.39-.36-.92-.56-1.45-.53Z"/></g></g></g></svg>