<svg version="1.1" width="45" height="46" xmlns="http://www.w3.org/2000/svg"><defs ></defs><g transform="translate(-19.8 -16.87)" fill="none"><ellipse cx="42.3" cy="39.87" rx="22.5" ry="23" /><ellipse cx="42.3" cy="39.87" rx="21.5" ry="22" stroke="#000" stroke-width="2"/></g><g  transform="translate(-19.8 -16.87)"><path  d="M34.99 35.64h3.22v9.68h-3.22z"/><path  d="M48.8 36.52a3.492 3.492 0 00-2.69-1.11c-.38 0-.76.05-1.12.15-.31.09-.6.23-.85.42-.38.28-.69.63-.94 1.02v-1.38h-3.21v.47c.02.31.02 1.28.02 2.89s0 3.72-.02 6.32h3.21v-5.4c0-.27.03-.54.11-.79.13-.33.35-.61.62-.83.29-.23.66-.35 1.03-.34.49-.04.95.18 1.24.58.29.48.43 1.04.4 1.61v5.18h3.21v-5.55c.08-1.17-.28-2.33-1.02-3.25z"/><path d="M36.63 30.98c-.48-.02-.96.15-1.31.47-.33.31-.51.75-.5 1.2-.01.45.17.88.49 1.19.35.33.81.5 1.29.48h.02c.49.02.96-.15 1.32-.48.33-.31.51-.74.49-1.19 0-.45-.17-.89-.5-1.2-.35-.33-.82-.5-1.3-.47z"/></g></svg>