<?xml version="1.0" encoding="UTF-8"?><svg id="Calque_1" xmlns="http://www.w3.org/2000/svg" viewBox="0 0 87.39 80.26"><defs><style>.cls-1,.cls-2{fill:none;}.cls-3{fill:#fff;}.cls-2{stroke:#fff;stroke-width:2px;}</style></defs><g id="Ellipse_6"><ellipse class="cls-1" cx="42.3" cy="39.87" rx="22.5" ry="23"/><ellipse class="cls-2" cx="42.3" cy="39.87" rx="21.5" ry="22"/></g><g id="linkedin10"><rect id="Rectangle_32" class="cls-3" x="34.99" y="35.64" width="3.22" height="9.68"/><path id="Tracé_21" class="cls-3" d="m48.8,36.52c-.69-.74-1.67-1.15-2.69-1.11-.38,0-.76.05-1.12.15-.31.09-.6.23-.85.42-.38.28-.69.63-.94,1.02v-1.38h-3.21v.47c.02.31.02,1.28.02,2.89,0,1.61,0,3.72-.02,6.32h3.21v-5.4c0-.27.03-.54.11-.79.13-.33.35-.61.62-.83.29-.23.66-.35,1.03-.34.49-.04.95.18,1.24.58.29.48.43,1.04.4,1.61v5.18h3.21v-5.55c.08-1.17-.28-2.33-1.02-3.25Z"/><path id="Tracé_22" class="cls-3" d="m36.63,30.98c-.48-.02-.96.15-1.31.47-.33.31-.51.75-.5,1.2-.01.45.17.88.49,1.19.35.33.81.5,1.29.48h.02c.49.02.96-.15,1.32-.48.33-.31.51-.74.49-1.19,0-.45-.17-.89-.5-1.2-.35-.33-.82-.5-1.3-.47Z"/></g></svg>